<?xml version="1.0" encoding="utf-8"?>
<!-- Generator: Adobe Illustrator 18.1.1, SVG Export Plug-In . SVG Version: 6.00 Build 0)  -->
<svg version="1.1" id="Layer_1" xmlns="http://www.w3.org/2000/svg" xmlns:xlink="http://www.w3.org/1999/xlink" x="0px" y="0px"
	 viewBox="0 0 477.1 317.8" enable-background="new 0 0 477.1 317.8" xml:space="preserve">
<g>
	<g>
		<path fill="#079AD2" d="M204.8,264c3.6-0.1,7.3-0.2,10.9-0.3c0-2.9,0-5.8,0-8.8c-3.6,0.1-7.3,0.2-10.9,0.3
			C204.8,258.1,204.8,261,204.8,264z"/>
	</g>
	<g>
		<path fill="#079AD2" d="M191.2,264.6c3.6-0.2,7.2-0.4,10.8-0.5c0-2.9,0-5.9,0-8.8c-3.6,0.1-7.2,0.3-10.8,0.5
			C191.2,258.7,191.2,261.6,191.2,264.6z"/>
	</g>
	<g>
		<path fill="#079AD2" d="M177.5,265.5c3.6-0.3,7.3-0.5,10.9-0.7c0-3,0-5.9,0-8.9c-3.6,0.2-7.3,0.4-10.9,0.7
			C177.5,259.5,177.5,262.5,177.5,265.5z"/>
	</g>
	<g>
		<path fill="#079AD2" d="M287.1,265.7c3.6,0.3,7.3,0.6,10.9,0.9c0-3,0-6,0-9c-3.6-0.3-7.3-0.6-10.9-0.8
			C287.1,259.7,287.1,262.7,287.1,265.7z"/>
	</g>
	<g>
		<path fill="#079AD2" d="M232.2,263.5c3.6,0,7.3,0,10.9,0.1c0-2.9,0-5.8,0-8.8c-3.6-0.1-7.3-0.1-10.9-0.1
			C232.2,257.7,232.2,260.6,232.2,263.5z"/>
	</g>
	<g>
		<path fill="#079AD2" d="M218.5,263.6c3.6-0.1,7.3-0.1,10.9-0.1c0-2.9,0-5.8,0-8.7c-3.6,0-7.3,0-10.9,0.1
			C218.5,257.8,218.5,260.7,218.5,263.6z"/>
	</g>
	<g>
		<path fill="#079AD2" d="M341.5,272c3.6,0.6,7.2,1.1,10.8,1.8c0-3.2,0-6.5,0-9.7c-3.6-0.6-7.2-1.1-10.8-1.6
			C341.5,265.7,341.5,268.8,341.5,272z"/>
	</g>
	<g>
		<path fill="#079AD2" d="M177.5,118.5c3.6,0.1,7.3,0.3,10.9,0.4c0-3,0-5.9,0-8.9c-3.6-0.1-7.3-0.3-10.9-0.5
			C177.5,112.5,177.5,115.5,177.5,118.5z"/>
	</g>
	<g>
		<path fill="#079AD2" d="M204.8,119.3c3.6,0.1,7.3,0.1,10.9,0.2c0-2.9,0-5.8,0-8.8c-3.6-0.1-7.3-0.1-10.9-0.2
			C204.8,113.4,204.8,116.3,204.8,119.3z"/>
	</g>
	<g>
		<path fill="#079AD2" d="M229.4,177.3c-3.6,0-7.3,0-10.9,0c0,2.9,0,5.8,0,8.8c3.6,0,7.3,0,10.9,0
			C229.4,183.1,229.4,180.2,229.4,177.3z"/>
	</g>
	<g>
		<path fill="#079AD2" d="M204.8,186.1c3.6,0,7.3,0,10.9,0c0-2.9,0-5.8,0-8.8c-3.6,0-7.3,0-10.9,0
			C204.8,180.2,204.8,183.2,204.8,186.1z"/>
	</g>
	<g>
		<path fill="#079AD2" d="M368.5,276.8c3.6,0.7,7.1,1.4,10.7,2.2c0-3.4,0-6.8,0-10.2c-3.6-0.7-7.1-1.3-10.7-2
			C368.5,270.1,368.5,273.4,368.5,276.8z"/>
	</g>
	<g>
		<path fill="#079AD2" d="M379.1,62.1c-3.6,0.8-7.1,1.5-10.7,2.2c0,3.3,0,6.7,0,10c3.6-0.6,7.1-1.3,10.7-2
			C379.1,68.9,379.1,65.5,379.1,62.1z"/>
	</g>
	<g>
		<path fill="#079AD2" d="M355,274.3c3.6,0.6,7.2,1.3,10.7,2c0-3.3,0-6.6,0-9.9c-3.6-0.6-7.1-1.2-10.7-1.8
			C355,267.8,355,271,355,274.3z"/>
	</g>
	<g>
		<path fill="#079AD2" d="M352.2,67.3c-3.6,0.6-7.2,1.2-10.8,1.8c0,3.2,0,6.4,0,9.5c3.6-0.5,7.2-1,10.8-1.6
			C352.2,73.8,352.2,70.5,352.2,67.3z"/>
	</g>
	<g>
		<path fill="#079AD2" d="M365.7,64.9c-3.6,0.7-7.1,1.3-10.7,2c0,3.2,0,6.5,0,9.8c3.6-0.6,7.2-1.2,10.7-1.8
			C365.7,71.5,365.7,68.2,365.7,64.9z"/>
	</g>
	<g>
		<path fill="#079AD2" d="M229.4,77.6c-3.6,0-7.3,0-10.9-0.1c0,2.9,0,5.8,0,8.8c3.6,0.1,7.3,0.1,10.9,0.1
			C229.4,83.4,229.4,80.5,229.4,77.6z"/>
	</g>
	<g>
		<path fill="#079AD2" d="M243.1,77.5c-3.6,0.1-7.3,0.1-10.9,0.1c0,2.9,0,5.8,0,8.7c3.6,0,7.3,0,10.9-0.1
			C243.1,83.3,243.1,80.4,243.1,77.5z"/>
	</g>
	<g>
		<path fill="#079AD2" d="M204.8,275.1c3.6-0.1,7.3-0.3,10.9-0.3c0-2.9,0-5.8,0-8.8c-3.6,0.1-7.3,0.2-10.9,0.3
			C204.8,269.2,204.8,272.2,204.8,275.1z"/>
	</g>
	<g>
		<path fill="#079AD2" d="M232.2,274.6c3.6,0,7.3,0,10.9,0.1c0-2.9,0-5.8,0-8.8c-3.6-0.1-7.3-0.1-10.9-0.1
			C232.2,268.7,232.2,271.7,232.2,274.6z"/>
	</g>
	<g>
		<path fill="#079AD2" d="M341.5,284.1c3.6,0.6,7.2,1.3,10.8,2c0-3.2,0-6.5,0-9.7c-3.6-0.6-7.2-1.2-10.8-1.8
			C341.5,277.7,341.5,280.9,341.5,284.1z"/>
	</g>
	<g>
		<path fill="#079AD2" d="M287.1,277c3.6,0.3,7.3,0.7,10.9,1c0-3,0-6,0-9c-3.6-0.3-7.3-0.7-10.9-1C287.1,271.1,287.1,274,287.1,277z
			"/>
	</g>
	<g>
		<path fill="#079AD2" d="M204.8,163.8c3.6,0,7.3,0,10.9,0c0-2.9,0-5.8,0-8.8c-3.6,0-7.3,0-10.9-0.1
			C204.8,157.9,204.8,160.8,204.8,163.8z"/>
	</g>
	<g>
		<path fill="#079AD2" d="M229.4,155.1c-3.6,0-7.3,0-10.9,0c0,2.9,0,5.8,0,8.8c3.6,0,7.3,0,10.9,0
			C229.4,160.9,229.4,158,229.4,155.1z"/>
	</g>
	<g>
		<path fill="#079AD2" d="M379.1,49.2c-3.6,0.8-7.1,1.6-10.7,2.4c0,3.3,0,6.7,0,10c3.6-0.7,7.1-1.5,10.7-2.2
			C379.1,56,379.1,52.6,379.1,49.2z"/>
	</g>
	<g>
		<path fill="#079AD2" d="M352.2,55c-3.6,0.7-7.2,1.3-10.8,2c0,3.2,0,6.4,0,9.5c3.6-0.6,7.2-1.2,10.8-1.8
			C352.2,61.5,352.2,58.2,352.2,55z"/>
	</g>
	<g>
		<path fill="#079AD2" d="M243.1,66.4c-3.6,0.1-7.3,0.1-10.9,0.1c0,2.9,0,5.8,0,8.7c3.6,0,7.3,0,10.9-0.1
			C243.1,72.2,243.1,69.3,243.1,66.4z"/>
	</g>
	<g>
		<path fill="#079AD2" d="M229.4,132.9c-3.6,0-7.3,0-10.9,0c0,2.9,0,5.8,0,8.8c3.6,0,7.3,0,10.9,0
			C229.4,138.8,229.4,135.8,229.4,132.9z"/>
	</g>
	<g>
		<path fill="#079AD2" d="M191.2,141.3c3.6,0.1,7.2,0.1,10.8,0.2c0-2.9,0-5.9,0-8.8c-3.6-0.1-7.2-0.1-10.8-0.2
			C191.2,135.4,191.2,138.4,191.2,141.3z"/>
	</g>
	<g>
		<path fill="#079AD2" d="M177.5,95.8c3.6,0.2,7.3,0.4,10.9,0.6c0-3,0-5.9,0-8.9c-3.6-0.2-7.3-0.4-10.9-0.6
			C177.5,89.9,177.5,92.9,177.5,95.8z"/>
	</g>
	<g>
		<path fill="#079AD2" d="M204.8,97c3.6,0.1,7.3,0.2,10.9,0.2c0-2.9,0-5.8,0-8.8c-3.6-0.1-7.3-0.2-10.9-0.3
			C204.8,91.2,204.8,94.1,204.8,97z"/>
	</g>
	<g>
		<path fill="#079AD2" d="M191.2,96.5c3.6,0.2,7.2,0.3,10.8,0.4c0-2.9,0-5.9,0-8.8c-3.6-0.1-7.2-0.3-10.8-0.5
			C191.2,90.6,191.2,93.6,191.2,96.5z"/>
	</g>
	<g>
		<path fill="#079AD2" d="M191.2,107.7c3.6,0.1,7.2,0.2,10.8,0.3c0-2.9,0-5.9,0-8.8c-3.6-0.1-7.2-0.2-10.8-0.4
			C191.2,101.8,191.2,104.8,191.2,107.7z"/>
	</g>
	<g>
		<path fill="#079AD2" d="M191.2,242.2c3.6-0.1,7.2-0.3,10.8-0.4c0-2.9,0-5.9,0-8.8c-3.6,0.1-7.2,0.2-10.8,0.3
			C191.2,236.3,191.2,239.2,191.2,242.2z"/>
	</g>
	<g>
		<path fill="#079AD2" d="M204.8,241.7c3.6-0.1,7.3-0.2,10.9-0.2c0-2.9,0-5.8,0-8.8c-3.6,0.1-7.3,0.1-10.9,0.2
			C204.8,235.9,204.8,238.8,204.8,241.7z"/>
	</g>
	<g>
		<path fill="#079AD2" d="M191.2,197.4c3.6-0.1,7.2-0.1,10.8-0.1c0-2.9,0-5.9,0-8.8c-3.6,0-7.2,0.1-10.8,0.1
			C191.2,191.5,191.2,194.4,191.2,197.4z"/>
	</g>
	<g>
		<path fill="#079AD2" d="M204.8,197.2c3.6,0,7.3-0.1,10.9-0.1c0-2.9,0-5.8,0-8.8c-3.6,0-7.3,0-10.9,0.1
			C204.8,191.4,204.8,194.3,204.8,197.2z"/>
	</g>
	<g>
		<path fill="#079AD2" d="M177.5,197.6c3.6-0.1,7.3-0.1,10.9-0.2c0-3,0-5.9,0-8.9c-3.6,0-7.3,0.1-10.9,0.1
			C177.5,191.7,177.5,194.7,177.5,197.6z"/>
	</g>
	<g>
		<path fill="#079AD2" d="M204.8,152.7c3.6,0,7.3,0,10.9,0.1c0-2.9,0-5.8,0-8.8c-3.6,0-7.3-0.1-10.9-0.1
			C204.8,146.8,204.8,149.7,204.8,152.7z"/>
	</g>
	<g>
		<path fill="#079AD2" d="M191.2,231c3.6-0.1,7.2-0.2,10.8-0.3c0-2.9,0-5.9,0-8.8c-3.6,0.1-7.2,0.2-10.8,0.3
			C191.2,225.1,191.2,228,191.2,231z"/>
	</g>
	<g>
		<path fill="#079AD2" d="M191.2,152.5c3.6,0,7.2,0.1,10.8,0.1c0-2.9,0-5.9,0-8.8c-3.6,0-7.2-0.1-10.8-0.1
			C191.2,146.6,191.2,149.6,191.2,152.5z"/>
	</g>
	<g>
		<path fill="#079AD2" d="M177.5,152.4c3.6,0.1,7.3,0.1,10.9,0.1c0-3,0-5.9,0-8.9c-3.6-0.1-7.3-0.1-10.9-0.2
			C177.5,146.4,177.5,149.4,177.5,152.4z"/>
	</g>
	<g>
		<path fill="#079AD2" d="M177.5,254.2c3.6-0.2,7.3-0.4,10.9-0.6c0-3,0-5.9,0-8.9c-3.6,0.2-7.3,0.4-10.9,0.6
			C177.5,248.2,177.5,251.2,177.5,254.2z"/>
	</g>
	<g>
		<path fill="#079AD2" d="M204.8,252.8c3.6-0.1,7.3-0.2,10.9-0.3c0-2.9,0-5.8,0-8.8c-3.6,0.1-7.3,0.1-10.9,0.2
			C204.8,247,204.8,249.9,204.8,252.8z"/>
	</g>
	<g>
		<path fill="#079AD2" d="M191.2,208.6c3.6-0.1,7.2-0.1,10.8-0.2c0-2.9,0-5.9,0-8.8c-3.6,0-7.2,0.1-10.8,0.2
			C191.2,202.7,191.2,205.6,191.2,208.6z"/>
	</g>
	<g>
		<path fill="#079AD2" d="M229.4,199.4c-3.6,0-7.3,0-10.9,0c0,2.9,0,5.8,0,8.8c3.6,0,7.3,0,10.9,0
			C229.4,205.2,229.4,202.3,229.4,199.4z"/>
	</g>
	<g>
		<path fill="#079AD2" d="M177.5,208.9c3.6-0.1,7.3-0.2,10.9-0.3c0-3,0-5.9,0-8.9c-3.6,0.1-7.3,0.1-10.9,0.2
			C177.5,203,177.5,206,177.5,208.9z"/>
	</g>
	<g>
		<path fill="#079AD2" d="M229.4,210.5c-3.6,0-7.3,0-10.9,0c0,2.9,0,5.8,0,8.8c3.6,0,7.3-0.1,10.9-0.1
			C229.4,216.3,229.4,213.4,229.4,210.5z"/>
	</g>
	<g>
		<path fill="#079AD2" d="M191.2,219.8c3.6-0.1,7.2-0.2,10.8-0.3c0-2.9,0-5.9,0-8.8c-3.6,0.1-7.2,0.1-10.8,0.2
			C191.2,213.9,191.2,216.8,191.2,219.8z"/>
	</g>
	<g>
		<path fill="#079AD2" d="M204.8,219.5c3.6-0.1,7.3-0.1,10.9-0.2c0-2.9,0-5.8,0-8.8c-3.6,0-7.3,0.1-10.9,0.1
			C204.8,213.6,204.8,216.5,204.8,219.5z"/>
	</g>
	<g>
		<path fill="#079AD2" d="M273.4,288.4c3.6,0.3,7.3,0.6,10.9,0.9c0-3.4,0-6.7,0-10.1c-3.6-0.3-7.3-0.6-10.9-0.8
			C273.4,281.7,273.4,285,273.4,288.4z"/>
	</g>
	<g>
		<path fill="#079AD2" d="M229.4,54.3c-3.6,0-7.3,0-10.9-0.1c0,3.3,0,6.6,0,9.9c3.6,0.1,7.3,0.1,10.9,0.1
			C229.4,60.9,229.4,57.6,229.4,54.3z"/>
	</g>
	<g>
		<path fill="#079AD2" d="M355,300.3c3.6,0.8,7.2,1.6,10.7,2.5c0-3.8,0-7.5,0-11.3c-3.6-0.8-7.1-1.5-10.7-2.2
			C355,292.9,355,296.6,355,300.3z"/>
	</g>
	<g>
		<path fill="#079AD2" d="M243.1,54.1c-3.6,0.1-7.3,0.1-10.9,0.1c0,3.3,0,6.6,0,9.9c3.6,0,7.3,0,10.9-0.1
			C243.1,60.8,243.1,57.4,243.1,54.1z"/>
	</g>
	<g>
		<path fill="#079AD2" d="M259.7,287.5c3.6,0.2,7.3,0.4,10.9,0.7c0-3.3,0-6.7,0-10c-3.6-0.2-7.3-0.4-10.9-0.6
			C259.7,280.9,259.7,284.2,259.7,287.5z"/>
	</g>
	<g>
		<path fill="#079AD2" d="M246,287c3.6,0.1,7.3,0.2,10.9,0.4c0-3.3,0-6.6,0-10c-3.6-0.1-7.3-0.3-10.9-0.4
			C246,280.4,246,283.7,246,287z"/>
	</g>
	<g>
		<path fill="#079AD2" d="M341.5,297.5c3.6,0.7,7.2,1.4,10.8,2.2c0-3.7,0-7.3,0-11c-3.6-0.7-7.2-1.4-10.8-2
			C341.5,290.3,341.5,293.9,341.5,297.5z"/>
	</g>
	<g>
		<path fill="#079AD2" d="M270.6,52.9c-3.6,0.3-7.3,0.5-10.9,0.6c0,3.3,0,6.6,0,10c3.6-0.2,7.3-0.4,10.9-0.6
			C270.6,59.6,270.6,56.2,270.6,52.9z"/>
	</g>
	<g>
		<path fill="#079AD2" d="M365.7,38.4c-3.6,0.9-7.1,1.7-10.7,2.5c0,3.7,0,7.4,0,11.1c3.6-0.7,7.2-1.5,10.7-2.3
			C365.7,45.9,365.7,42.1,365.7,38.4z"/>
	</g>
	<g>
		<path fill="#079AD2" d="M352.2,41.4c-3.6,0.8-7.2,1.5-10.8,2.2c0,3.6,0,7.2,0,10.8c3.6-0.6,7.2-1.3,10.8-2
			C352.2,48.7,352.2,45.1,352.2,41.4z"/>
	</g>
	<g>
		<path fill="#079AD2" d="M338.7,44.1c-3.5,0.7-7.1,1.3-10.7,1.9c0,3.5,0,7.1,0,10.6c3.6-0.6,7.1-1.1,10.7-1.8
			C338.7,51.3,338.7,47.7,338.7,44.1z"/>
	</g>
	<g>
		<path fill="#079AD2" d="M311.6,48.6c-3.6,0.5-7.2,1-10.9,1.4c0,3.4,0,6.8,0,10.3c3.6-0.4,7.2-0.8,10.9-1.3
			C311.6,55.5,311.6,52.1,311.6,48.6z"/>
	</g>
	<g>
		<path fill="#079AD2" d="M177.5,129.8c3.6,0.1,7.3,0.2,10.9,0.3c0-3,0-5.9,0-8.9c-3.6-0.1-7.3-0.2-10.9-0.4
			C177.5,123.8,177.5,126.8,177.5,129.8z"/>
	</g>
	<g>
		<path fill="#079AD2" d="M298,50.4c-3.6,0.4-7.3,0.8-10.9,1.2c0,3.4,0,6.8,0,10.1c3.6-0.3,7.3-0.7,10.9-1.1
			C298,57.2,298,53.8,298,50.4z"/>
	</g>
	<g>
		<path fill="#079AD2" d="M284.3,51.8c-3.6,0.3-7.3,0.6-10.9,0.9c0,3.3,0,6.7,0,10c3.6-0.2,7.3-0.5,10.9-0.8
			C284.3,58.5,284.3,55.2,284.3,51.8z"/>
	</g>
	<g>
		<path fill="#079AD2" d="M229.4,121.9c-3.6,0-7.3,0-10.9-0.1c0,2.9,0,5.8,0,8.8c3.6,0,7.3,0,10.9,0
			C229.4,127.7,229.4,124.8,229.4,121.9z"/>
	</g>
	<g>
		<path fill="#079AD2" d="M204.8,130.4c3.6,0.1,7.3,0.1,10.9,0.1c0-2.9,0-5.8,0-8.8c-3.6,0-7.3-0.1-10.9-0.2
			C204.8,124.5,204.8,127.5,204.8,130.4z"/>
	</g>
	<g>
		<path fill="#079AD2" d="M232.2,286.8c3.6,0,7.3,0.1,10.9,0.1c0-3.3,0-6.6,0-9.9c-3.6-0.1-7.3-0.1-10.9-0.1
			C232.2,280.2,232.2,283.5,232.2,286.8z"/>
	</g>
	<g>
		<path fill="#079AD2" d="M191.2,175c3.6,0,7.2,0,10.8,0c0-3,0-5.9,0-8.9c-3.6,0-7.2,0-10.8,0C191.2,169.1,191.2,172,191.2,175z"/>
	</g>
	<g>
		<path fill="#079AD2" d="M229.4,166.1c-3.6,0-7.3,0-10.9,0c0,2.9,0,5.9,0,8.8c3.6,0,7.3,0,10.9,0
			C229.4,172,229.4,169.1,229.4,166.1z"/>
	</g>
	<g>
		<path fill="#079AD2" d="M300.8,291c3.6,0.4,7.2,0.9,10.9,1.4c0-3.5,0-6.9,0-10.4c-3.6-0.5-7.2-0.9-10.9-1.3
			C300.8,284.2,300.8,287.6,300.8,291z"/>
	</g>
	<g>
		<path fill="#079AD2" d="M314.4,292.9c3.6,0.5,7.2,1.1,10.8,1.7c0-3.5,0-7,0-10.6c-3.6-0.5-7.2-1.1-10.8-1.5
			C314.4,285.9,314.4,289.4,314.4,292.9z"/>
	</g>
	<g>
		<path fill="#079AD2" d="M392.5,218.4c0-0.9,0-1.9-0.1-2.8c-0.1-3.8-0.6-7.3-1.2-10.6c-0.2-1-0.4-1.9-0.7-2.8c-0.5-1.8-1-3.4-1.7-5
			c-0.8-2-1.8-3.9-2.8-5.6c-0.6-1-1.5-2.2-1.5-2.2l-5.4-0.3c0,0-7.1-0.3-10.6-0.4c0-3.4,0-10.3,0-10.3l0-1.9c0,0-1.6-0.8-4.4-1.8
			c-3-1.1-6.1-1.9-9.2-2.6c-0.9-0.2-1.8-0.4-2.8-0.6c-1.8-0.3-3.6-0.6-5.5-0.9c0-1.7,0-3.4,0-5.2c0-0.9,0-1.7,0-2.6c0,0,0-0.1,0-0.1
			c1.7-0.6,3.5-1.2,5.5-1.9c0.9-0.3,1.8-0.7,2.8-1c1.4-0.5,2.7-1,4.2-1.6c2.3-0.9,4.4-2,6.5-3.3c0.9-0.6,1.9-1.2,2.8-1.8
			c0-0.2,0-0.4,0-0.5c0.3,0,0.5,0,0.8,0c0.9-0.7,1.8-1.4,2.7-2.2c0.2-0.2,0.4-0.4,0.7-0.6c2.4-2.2,4.5-4.7,6.5-7.6
			c1-1.6,2-3.2,2.9-5c0.1-0.2,0.2-0.5,0.4-0.8c1.5-3.1,2.5-6.6,3.1-10.5c0.1-0.9,0.3-1.8,0.4-2.8c0.2-1.9,0.3-3.9,0.3-6
			c0-1.5-0.1-2.9-0.1-4.3c-0.1-0.9-0.1-1.8-0.3-2.7c-0.4-3.6-1.2-6.9-2.2-10c0-0.1-0.1-0.2-0.1-0.4c-0.3-0.8-0.6-1.5-0.9-2.2
			c-0.2,0-0.4,0.1-0.6,0.1c0-0.4,0-0.9,0-1.3c-0.8-1.5-1.7-2.9-2.7-4.2c-1.1-1.3-2.3-2.6-3.7-3.7c-0.4-0.4-0.9-0.7-1.3-1.1
			c-0.6-0.4-1.1-0.8-1.7-1.1c-1.2-0.8-2.5-1.4-3.9-2c-0.9-0.4-1.8-0.7-2.8-1c-2.7-0.9-5.6-1.6-8.8-2c-0.6-0.1-1.2-0.2-1.9-0.2
			c-0.9-0.1-1.8-0.1-2.8-0.1c-0.8,0-1.7,0-2.5,0c-0.9,0-1.7,0-2.6,0.1c-1.8,0.1-3.7,0.2-5.6,0.3c-0.9,0.1-1.8,0.1-2.8,0.2
			c0-0.8,0-1.7,0-2.5c-3.5,0.5-7,0.9-10.6,1.4c0-3.1,0-6.2,0-9.4c3.5-0.5,7.1-1,10.6-1.5c0,0,0,0,0,0c0-0.8,0-1.7,0-2.5
			c0-3.2,0-6.3,0-9.5c-3.5,0.6-7.1,1.2-10.7,1.7c-0.9,0.1-1.9,0.3-2.8,0.4c-3.6,0.5-7.2,1-10.8,1.5c-0.9,0.1-1.9,0.2-2.8,0.4
			c-3.6,0.5-7.2,0.9-10.9,1.3c0,3,0,6,0,9.1c0,0.8,0,1.6,0,2.4c0,3,0,6,0,9.1c0,0.8,0,1.6,0,2.4c-0.9,0.1-1.9,0.2-2.8,0.2
			c-3.6,0.3-17.8,0.9-21.2,0.9c0-2.9,0-6.3,0-9.2c1.5,0,6.8-0.1,10.3-0.5c0-0.7,0-0.9,0-1.6c0-0.8,0-1.6,0-2.4c0-3,0-6,0-8.9
			c-0.9,0.1-1.9,0.2-2.8,0.2c-3.6,0.3-7.3,0.6-10.9,0.8c-0.9,0.1-1.9,0.1-2.8,0.2c-3.6,0.2-7.3,0.4-10.9,0.6c-0.9,0-1.9,0.1-2.8,0.1
			c-3.6,0.1-7.3,0.3-10.9,0.3c0,2.9,0,5.8,0,8.8c0,0.8,0,1.6,0,2.3c0,2.9,0,5.8,0,8.8c0,0.8,0,1.6,0,2.3c-0.9,0-1.9,0-2.8,0
			c-0.6,0-1.2,0-1.7,0c-3.1,0-6.1,0.1-9.2,0.1c-0.9,0-1.9,0-2.8,0c-3.6,0-7.3,0-10.9-0.1c0,2.9,0,5.8,0,8.8c0,0.8,0,1.5,0,2.3
			c3.6,0.1,7.3,0.2,10.9,0.3c0,2.9,0,5.8,0,8.8c-3.6-0.1-7.3-0.1-10.9-0.2c0,0.8,0,1.5,0,2.3c0,2.9,0,5.8,0,8.8
			c3.6,0,7.3,0.1,10.9,0.1c0.9,0,1.9,0,2.8,0c0,0.8,0,1.6,0,2.3c0,2.9,0,5.8,0,8.7c0,0.8,0,1.6,0,2.3c0,2.9,0,5.8,0,8.7
			c0,0.8,0,1.6,0,2.3c0,2.9,0,5.8,0,8.7c0,0.8,0,1.5,0,2.3c3.5,0,7.1,0,10.6,0c0,2.9,0,5.8,0,8.7c-3.5,0-7.1,0-10.6,0c0,0,0,0,0,0
			c0,0.8,0,1.6,0,2.3c0,2.9,0,5.9,0,8.8c0,0.8,0,1.6,0,2.3c0,0,0,0,0,0c3.5,0,7.1,0,10.6,0c0,2.9,0,5.8,0,8.7c-3.5,0-7.1,0-10.6,0
			c0,0.8,0,1.5,0,2.3c0,2.9,0,5.8,0,8.7c0,0.8,0,1.6,0,2.3c0,2.9,0,5.8,0,8.7c0,0.8,0,1.5,0,2.3c0,2.9,0,5.8,0,8.7
			c0,0.8,0,1.5,0,2.3c-0.9,0-1.9,0-2.8,0c-3.6,0-7.3,0-10.9,0.1c0,2.9,0,5.8,0,8.7c0,0.8,0,1.6,0,2.3c0,2.9,0,5.8,0,8.8
			c0,0.8,0,1.6,0,2.3c0,0.1,0,0.2,0,0.3c3.5-0.1,7.1-0.2,10.6-0.2c0,2.9,0,5.7,0,8.6c0.1,0,0.2,0,0.3,0c0.9,0,1.9,0,2.8,0
			c3.1,0,6.1,0,9.2,0.1c0.6,0,1.2,0,1.7,0c0.9,0,1.9,0,2.8,0c0,0.8,0,1.6,0,2.3c0,2.9,0,5.8,0,8.8c0,0.8,0,1.6,0,2.3
			c0,2.9,0,5.8,0,8.8c3.6,0.1,7.3,0.2,10.9,0.3c0.9,0,1.9,0.1,2.8,0.1c3.6,0.2,7.3,0.4,10.9,0.6c0.9,0.1,1.9,0.1,2.8,0.2
			c0.1,0,0.2,0,0.2,0c0-2.9,0-5.7,0-8.6c3.6,0.3,7.1,0.6,10.7,0.9c0-0.2,0-0.3,0-0.5c0-0.8,0-1.6,0-2.4c0-3,0-6,0-8.9
			c0-0.8,0-1.6,0-2.4c0.9,0.1,1.9,0.1,2.8,0.2c3.6,0.2,7.3,0.5,10.9,0.8c0.9,0.1,1.9,0.2,2.8,0.2c0,0.8,0,1.6,0,2.4c0,3,0,6,0,9.1
			c0,0.8,0,1.6,0,2.4c0,3,0,6,0,9.1c3.6,0.4,7.2,0.8,10.9,1.3c0.9,0.1,1.9,0.2,2.8,0.4c3.6,0.5,7.2,1,10.8,1.5
			c0.9,0.1,1.9,0.3,2.8,0.4c3.6,0.5,7.1,1.1,10.7,1.7c0-3.2,0-6.3,0-9.5c0-0.8,0-1.7,0-2.5c0-3.2,0-6.3,0-9.5c0-0.8,0-1.7,0-2.5
			c0.9,0.1,1.9,0.1,2.8,0.2c3.8,0.3,7.4,0.5,10.8,0.6c0.9,0,1.9,0,2.8-0.1c1.3,0,2.5-0.1,3.7-0.3c2.5-0.3,4.8-0.8,7-1.4
			c0.9-0.2,1.9-0.5,2.8-0.8c2.3-0.7,4.4-1.6,6.4-2.7c1.2-0.6,2.3-1.3,3.4-2.1c0,0,0.1,0,0.1-0.1c0.3-0.2,0.6-0.4,0.8-0.6
			c1-0.7,1.9-1.5,2.7-2.3c1.9-1.8,3.5-3.8,4.8-6c0.5-0.8,1-1.7,1.4-2.6c0.4-0.8,0.8-1.7,1.1-2.5c0.9-2.3,1.6-4.8,2.1-7.4
			c0.2-0.9,0.3-1.8,0.5-2.7c0.5-3.1,0.7-6.5,0.7-10c0,0,0-0.1,0-0.1C392.5,218.6,392.5,218.5,392.5,218.4z M368.6,100.5
			c3.5-0.5,7.1-1,10.6-1.5c0,3.5,0,7,0,10.5c-3.5,0.4-7.1,0.9-10.6,1.3C368.6,107.3,368.6,103.9,368.6,100.5z M368.6,126.4
			c3.5-0.3,7.1-0.6,10.6-1c0,3.5,0,7,0,10.5c-3.5,0.3-7.1,0.5-10.6,0.7C368.6,133.3,368.6,129.9,368.6,126.4z M259.8,98.8
			c3.6-0.2,7.3-0.3,10.9-0.6c0,3,0,6,0,8.9c-3.6,0.2-7.3,0.3-10.9,0.5C259.8,104.7,259.8,101.7,259.8,98.8z M266.5,132.9
			c0,2.9,0,5.8,0,8.7c-3.6,0-7.3,0-10.9,0c0-2.9,0-5.8,0-8.8C259.3,132.9,262.9,132.9,266.5,132.9z M246.2,99.3
			c3.6-0.1,7.2-0.2,10.8-0.4c0,2.9,0,5.9,0,8.8c-3.6,0.1-7.2,0.2-10.8,0.3C246.2,105.1,246.2,102.2,246.2,99.3z M240.3,130.6
			c0-2.9,0-5.8,0-8.8c3.6,0,7.3,0.1,10.9,0.1c0,2.9,0,5.8,0,8.7C247.6,130.6,243.9,130.6,240.3,130.6z M243.3,241.5
			c-3.6,0.1-7.3,0.1-10.9,0.2c0-2.9,0-5.9,0-8.8c3.6-0.1,7.3-0.2,10.9-0.2C243.3,235.6,243.3,238.6,243.3,241.5z M254.2,219.2
			c-3.6,0-7.3,0-10.9,0.1c0-2.9,0-5.8,0-8.8c3.6,0,7.3,0,10.9,0C254.2,213.4,254.2,216.3,254.2,219.2z M254.2,208.2
			c-3.6,0-7.3,0-10.9,0c0-2.9,0-5.8,0-8.8c3.6,0,7.3,0,10.9,0C254.2,202.3,254.2,205.2,254.2,208.2z M254.3,175c0-3,0-5.9,0-8.9
			c3.6,0,7.3,0,10.9,0c0,3,0,6,0,9C261.6,175,257.9,175,254.3,175z M270.8,263.6c-3.6-0.1-7.3-0.1-10.9-0.1c0-2.9,0-5.8,0-8.7
			c3.6,0,7.3,0,10.9,0.1C270.8,257.8,270.8,260.7,270.8,263.6z M279.8,154.8c0-0.8,0-1.6,0-2.4c0-3,0-5.9,0-8.9c0-0.8,0-1.6,0-2.4
			c0-3,0-5.9,0-8.9c0-0.8,0-1.6,0-2.4c0-3,0-5.9,0-8.9c0-0.8,0-1.6,0-2.4c0-1.5,0-2.9,0-4.4c1.5-0.1,3-0.1,4.5-0.2
			c0.9,0,1.9-0.1,2.8-0.1c3.6-0.2,7.3-0.4,10.9-0.6c0.9-0.1,1.9-0.1,2.8-0.2c1-0.1,2.1-0.1,3.1-0.2c2.8-0.2,5.4-0.3,7.8-0.3
			c1,0,1.9,0,2.8,0c1.7,0,3.3,0.1,4.8,0.1c2.3,0.1,4.3,0.5,6.1,1c1,0.3,1.9,0.6,2.8,1c0.2,0.1,0.5,0.2,0.7,0.3
			c0.4,0.2,0.7,0.4,1,0.7c1,0.7,1.8,1.4,2.5,2.3c0.6,0.8,1.1,1.6,1.4,2.5c0.7,1.8,1.2,4.1,1.3,6.8c0,0.7,0.1,1.5,0.1,2.3
			c0,0.1,0,0.1,0,0.2c0,3.6-0.5,6.8-1.5,9.5c-0.3,0.9-0.7,1.8-1.1,2.6c-0.1,0.2-0.2,0.4-0.3,0.5c-1.1,1.9-2.5,3.6-4.1,5
			c-0.9,0.8-1.8,1.5-2.8,2.2c-0.3,0.2-0.6,0.4-1,0.6c-0.8,0.5-1.6,0.9-2.5,1.3c-2.7,1.2-5.8,2.2-9.2,2.8c-0.3,0.1-0.6,0.1-0.9,0.1
			c-0.6,0.1-1.3,0.2-2.1,0.3c-2.6,0.3-5.7,0.6-8.8,0.8c-1,0.1-1.9,0.1-2.8,0.2c-1.6,0.1-3.2,0.2-4.5,0.2c-2.1,0.1-4.3,0.1-6.4,0.2
			c-0.9,0-1.9,0.1-2.8,0.1c-1.5,0-3,0.1-4.5,0.1C279.8,155.9,279.8,155.4,279.8,154.8z M298.4,242.9c-3.6-0.2-7.3-0.4-10.9-0.5
			c0-3,0-5.9,0-8.9c3.6,0.1,7.3,0.3,10.9,0.5C298.4,236.9,298.4,239.9,298.4,242.9z M325.8,244.8c-3.6-0.3-7.2-0.6-10.9-0.9
			c0-3,0-6,0-9.1c3.6,0.2,7.2,0.5,10.9,0.8C325.8,238.7,325.8,241.7,325.8,244.8z M338.7,220.8c-0.6,0.9-1.2,1.7-1.9,2.5
			c-1,0.9-2.1,1.7-3.3,2.3c-0.2,0.1-0.3,0.2-0.5,0.3c-1.4,0.6-3,1.1-4.9,1.5c-0.9,0.2-1.8,0.3-2.8,0.5c-3.1,0.4-6.7,0.7-10.8,0.7
			c-0.9,0-1.8,0-2.8,0c-2.1,0-4.2-0.1-6.5-0.2c-1.4-0.1-2.9-0.2-4.3-0.3c-0.9-0.1-1.9-0.1-2.8-0.2c-2.7-0.2-5.5-0.3-8.2-0.4
			c-0.9,0-1.8-0.1-2.7-0.1c-0.9,0-1.9-0.1-2.8-0.1c-1.5-0.1-3-0.1-4.5-0.2c0-1.5,0-3,0-4.5c0-0.8,0-1.6,0-2.4c0-3,0-5.9,0-8.9
			c0-0.8,0-1.6,0-2.4c0-3,0-5.9,0-8.9c0-0.8,0-1.6,0-2.4c0-3,0-5.9,0-8.9c0-0.8,0-1.6,0-2.4c0-0.4,0-0.9,0-1.3c1.5,0,3,0,4.5,0.1
			c0.9,0,1.9,0,2.8,0c1.4,0,2.8,0,4.2,0.1c2,0,4.3,0.1,6.7,0.2c0.9,0,1.9,0.1,2.8,0.1c3.8,0.1,7.7,0.3,10.9,0.6
			c1,0.1,1.9,0.2,2.8,0.2c0.3,0,0.6,0.1,0.9,0.1c1.5,0.2,2.9,0.4,4.3,0.6c3.6,0.6,6.7,1.5,9.4,2.7c0.2,0.1,0.5,0.2,0.7,0.3
			c2.5,1.2,4.6,2.6,6.3,4.4c0.9,0.9,1.7,1.9,2.3,3c0.1,0.2,0.3,0.5,0.4,0.7c1.7,3.1,2.5,7.1,2.5,11.9
			C341.2,214.5,340.4,218.1,338.7,220.8z M379.2,228.9c-3.5-0.4-7.1-0.8-10.6-1.2c0-3.4,0-6.8,0-10.3c3.5,0.3,7.1,0.7,10.6,1
			C379.2,221.9,379.2,225.4,379.2,228.9z"/>
	</g>
</g>
</svg>
